<?xml version="1.0" encoding="utf-8"?>
<!-- Generator: Adobe Illustrator 24.1.1, SVG Export Plug-In . SVG Version: 6.00 Build 0)  -->
<svg version="1.1" id="Capa_1" xmlns="http://www.w3.org/2000/svg" xmlns:xlink="http://www.w3.org/1999/xlink" x="0px" y="0px"
	 viewBox="0 0 841.89 1190.55" style="enable-background:new 0 0 841.89 1190.55;" xml:space="preserve">
<style type="text/css">
	.st0{fill:#005A8B;}
	.st1{fill:#69ADD5;}
	.st2{fill:#01FDFD;}
	.st3{fill:#FBFDFD;}
</style>
<g>
	<path class="st0" d="M983,111.55c0,323,0,646,0,969c-0.34,1.05-0.83,2.08-1,3.16c-6.41,40.18-39.79,70.78-79.77,73.1
		c-2.49-0.09-4.98-0.25-7.48-0.25c-315.83-0.01-631.66-0.01-947.5,0.01c-2.16,0-4.32,0.15-6.48,0.24
		c-43.47-2.3-79.67-39.17-80.85-82.33c0.08-2.32,0.22-4.65,0.22-6.98c0.01-315.15,0.01-630.3,0-945.45c0-1.83-0.15-3.65-0.23-5.48
		c1.32-42.92,37.02-79.72,79.84-82.27c2.16,0.09,4.32,0.25,6.48,0.25c316.84,0.01,633.68,0.02,950.52,0.01
		c2.16,0,4.32-0.16,6.48-0.24c31.3,3.01,54.84,18.34,69.46,45.96C977.76,89.83,979.66,101.07,983,111.55z M699.15,709.75
		c-5.5,5.23-10.68,10.86-16.56,15.63c-41.71,33.83-88.73,51.36-143.03,45.16c-39.79-4.54-73.25-21.97-100.58-51.17
		c-4.81-5.14-9.34-10.56-13.99-15.84c-0.47,1.81-0.17,3.19,0.38,4.45c11.27,25.79,27.82,47.64,49.53,65.48
		c36.77,30.2,79.44,42.39,126.46,39.91c42.72-2.26,81.64-16.58,117.41-39.58c39.67-25.52,72.4-58.39,100.16-96.36
		c1.93-2.63,3.97-5.18,6.02-7.84c8.51,5.71,16.57,11.12,25.29,16.97c8.58-54.82,17-108.58,25.62-163.6
		c-47.79,28.32-94.32,55.9-141.44,83.82c7.4,5.02,13.93,9.61,20.64,13.92c2.82,1.81,3.78,3.33,2.09,6.74
		c-11.23,22.58-24.02,44.14-40.16,63.6c-0.16-1.81-0.45-3.62-0.45-5.43c-0.02-24.65,0.03-49.3,0.01-73.96
		c-0.02-26.64-11.71-44.77-36.51-53.63c-34.68-12.39-68.12-6.29-100.51,9.09c-3.47,1.65-4.25,4.66-2.95,8
		c3.38,8.66,6.91,17.27,10.51,25.84c1.38,3.29,4.08,4.19,7.41,3.1c1.73-0.57,3.42-1.29,5.12-1.95c13.15-5.05,26.61-8.43,40.86-7.72
		c11.6,0.58,18.64,7.7,18.2,18.72c-0.95,0.14-1.92,0.35-2.9,0.42c-13.93,1.03-27.89,1.78-41.8,3.1
		c-25.17,2.39-43.85,19.99-47.58,44.4c-3.14,20.56,4.28,37.09,20.75,45.79c14.12,7.46,29.02,7.63,44.2,4.19
		c10.07-2.28,19.36-6.32,27.47-13.49c0.48,10.86,1.9,12.17,12.35,12.18C680.5,709.72,689.83,709.74,699.15,709.75z M55.98,556.72
		c2.24,0,3.88,0,5.51,0c14.49,0,28.98,0.02,43.48-0.03c6.45-0.02,8.83-2.36,8.86-8.65c0.04-10.83,0.04-21.65-0.01-32.48
		c-0.03-6.11-2.71-8.83-8.84-8.83c-52.64-0.03-105.27-0.02-157.91,0.01c-6.14,0-8.84,2.68-8.88,8.8c-0.06,10.83-0.05,21.65,0,32.48
		c0.03,6.39,2.32,8.66,8.79,8.68c14.49,0.04,28.98,0.01,43.48,0c1.76,0,3.53,0,5.58,0c0,2.68,0,4.66,0,6.64
		c0,45.31,0,90.62,0,135.92c0,8.34,2.03,10.44,10.18,10.45c13.16,0.02,26.32,0.02,39.48,0c8.14-0.01,10.27-2.17,10.27-10.37
		c0.01-45.47,0.01-90.95,0.01-136.42C55.98,561.1,55.98,559.27,55.98,556.72z M323.85,650.39c2.36,0,4.01,0,5.66,0
		c24.83-0.01,49.65-0.01,74.48-0.03c1.83,0,3.67-0.05,5.47-0.31c8.38-1.21,11.36-4.28,11.44-12.84c0.06-6.81-0.05-13.7-1.06-20.41
		c-3.41-22.67-13.07-41.85-32.93-54.57c-16.04-10.28-33.83-12.22-52.33-9.63c-26.44,3.7-46.86,16.4-59.26,40.49
		c-8.16,15.86-10.43,32.99-8.14,50.49c4.15,31.61,20.76,53.78,51.28,64.57c16.86,5.96,34.3,5.91,51.8,3.91
		c13.3-1.52,26.2-4.59,38.06-11.08c6.78-3.71,7.68-6.2,5-13.34c-1.99-5.29-3.98-10.57-5.98-15.85c-2.98-7.89-5.9-9.24-13.67-5.76
		c-12.45,5.58-25.51,7.72-38.96,6.46C340.77,671.16,329.69,665.12,323.85,650.39z M239.85,478.26c0.33,0.11,0.66,0.22,0.99,0.33
		c0,1.58,0,3.16,0,4.75c0,17.66,0.06,35.32-0.06,52.98c-0.03,3.99,1.22,6.67,5.43,6.72c9.99,0.13,19.99,0.09,29.99-0.02
		c3.76-0.04,5.78-2.04,5.78-5.98c-0.02-42.32-0.02-84.63,0-126.95c0-4.41-2.25-6.36-6.49-6.36c-6.33,0-12.68,0.25-18.99-0.09
		c-5.24-0.28-8.73,1.74-11.73,5.93c-11.64,16.23-23.48,32.31-35.26,48.44c-1.83,2.51-3.74,4.96-5.77,7.66
		c-13.81-19.03-27.35-37.57-40.73-56.23c-2.88-4.01-6.23-6.05-11.3-5.8c-6.15,0.31-12.32,0.04-18.49,0.08
		c-5.66,0.04-7.19,1.53-7.19,7.01c-0.02,41.82-0.02,83.63,0,125.45c0,5.41,1.35,6.83,6.77,6.89c9,0.09,17.99,0.07,26.99,0.01
		c5.88-0.04,7.19-1.44,7.2-7.48c0.02-12.83,0-25.66,0-38.48c0-6.23,0-12.47,0-20.02c8.19,11.75,15.46,22.42,23.04,32.86
		c1.53,2.11,4.08,4.53,6.42,4.84c10.51,1.38,20.03,1.05,25.91-10.81C226.94,494.78,233.94,486.79,239.85,478.26z M481.44,714.34
		c11.65-1.56,23.53-2.17,34.91-4.87c27.95-6.62,42.26-38.46,29.72-64.43c-6.3-13.05-17.18-20.77-29.95-26.51
		c-7.42-3.33-14.71-6.93-21.95-10.63c-3.25-1.66-5.31-4.9-3.92-8.27c1.05-2.53,3.73-4.93,6.27-6.16c2.53-1.22,5.85-1.45,8.74-1.17
		c7.26,0.69,14.5,1.73,21.7,2.96c7.03,1.2,11.04-0.49,11.98-6.17c1.13-6.89,2-13.84,2.5-20.8c0.44-6.12-2.18-10.03-8.12-11.56
		c-22.06-5.71-44.33-7.77-66.52-1.08c-33.31,10.05-44.47,48.72-22.03,75.52c6.86,8.19,16.13,12.51,25.79,16.43
		c7.04,2.86,13.98,6.2,20.42,10.2c5.05,3.14,4.38,8.92-1.03,11.4c-3.08,1.41-6.78,2.45-10.08,2.19c-9.4-0.75-18.84-1.77-28.07-3.62
		c-9.55-1.92-13.4,0.18-14.76,9.92c-0.71,5.11-1.36,10.23-1.84,15.37c-0.76,8.17,0.48,10.23,7.96,13.47
		C455.33,711.78,468.29,712.55,481.44,714.34z M189.89,568.72c-0.18-1.31-0.33-2.1-0.38-2.89c-0.51-8.51-2.18-10.12-10.53-10.12
		c-12.66,0-25.32-0.03-37.97,0.02c-6.17,0.02-8.95,2.64-8.95,8.74c-0.05,45.63-0.04,91.27,0.01,136.9c0.01,5.41,2.62,8.24,7.86,8.29
		c13.99,0.14,27.98,0.07,41.97,0.04c4.32-0.01,6.77-2.41,7.57-6.5c0.32-1.61,0.35-3.3,0.35-4.95c0.03-20.98-0.13-41.97,0.08-62.95
		c0.16-15.85,9.17-26.18,24.94-26.68c9.44-0.3,19.05,1.93,28.43,3.78c7.52,1.48,11.57-0.31,12.41-7.74
		c1.57-13.89,2.79-27.81,4-41.74c0.41-4.69-1.38-8.4-6.56-8.86c-9.05-0.81-18.21-2.26-27.18-1.58
		C212.41,553.49,200.53,559.56,189.89,568.72z M303.45,490.01c0,15.31-0.04,30.63,0.02,45.94c0.02,5.37,1.56,7.02,6.75,7.09
		c8.82,0.11,17.64,0.01,26.46,0.01c4.36,0,6.32-2.22,6.32-6.52c-0.03-30.96-0.02-61.92-0.02-92.88c0-4.33-2.07-6.35-6.47-6.3
		c-8.49,0.1-16.98-0.01-25.47,0.02c-6.23,0.02-7.58,1.37-7.59,7.69C303.43,460.05,303.45,475.03,303.45,490.01z M323.59,395.41
		c-4.66,0-9.32,0.08-13.98-0.02c-3.93-0.08-6.01,1.82-6.07,5.62c-0.12,6.49-0.06,12.98,0.03,19.47c0.05,3.59,1.91,5.54,5.61,5.54
		c9.32,0,18.64-0.01,27.96,0.02c3.96,0.01,5.81-2.06,5.84-5.85c0.05-6.32,0.06-12.65-0.02-18.98c-0.04-3.79-1.94-5.85-5.89-5.82
		C332.58,395.43,328.09,395.4,323.59,395.41z"/>
	<path class="st1" d="M903,33.55c0.22,0.21,0.29,0.46,0.23,0.75c-2.16,0.08-4.32,0.24-6.48,0.24
		c-316.84,0.01-633.68,0.01-950.52-0.01c-2.16,0-4.32-0.16-6.48-0.25c-0.07-0.3,0.01-0.54,0.24-0.74C261,33.55,582,33.55,903,33.55z
		"/>
	<path class="st1" d="M902.23,1156.81c0.05,0.29-0.03,0.53-0.23,0.74c-320.33,0-640.67,0-961,0c-0.2-0.21-0.28-0.46-0.22-0.75
		c2.16-0.08,4.32-0.24,6.48-0.24c315.83-0.01,631.66-0.02,947.5-0.01C897.25,1156.56,899.74,1156.72,902.23,1156.81z"/>
	<path class="st1" d="M-141,116.55c0.31,0.08,0.61,0.09,0.92,0.01c0.08,1.83,0.23,3.65,0.23,5.48c0.01,315.15,0.01,630.3,0,945.45
		c0,2.33-0.15,4.65-0.22,6.98c0,0-0.47-0.02-0.47-0.02l-0.46,0.1C-141,755.22-141,435.88-141,116.55z"/>
	<path class="st2" d="M716.97,691.04c16.14-19.46,28.93-41.02,40.16-63.6c1.69-3.4,0.73-4.93-2.09-6.74
		c-6.71-4.31-13.23-8.9-20.64-13.92c47.12-27.92,93.65-55.5,141.44-83.82c-8.61,55.02-17.03,108.78-25.62,163.6
		c-8.72-5.85-16.77-11.25-25.29-16.97c-2.05,2.66-4.09,5.21-6.02,7.84c-27.76,37.97-60.49,70.84-100.16,96.36
		c-35.76,23-74.69,37.32-117.41,39.58c-47.02,2.49-89.68-9.7-126.46-39.91c-21.72-17.84-38.27-39.69-49.53-65.48
		c-0.55-1.26-0.84-2.64-0.38-4.45c4.66,5.29,9.18,10.7,13.99,15.84c27.33,29.2,60.79,46.63,100.58,51.17
		c54.3,6.19,101.32-11.34,143.03-45.16c5.88-4.77,11.06-10.4,16.56-15.63C705.09,703.52,711.03,697.28,716.97,691.04z"/>
	<path class="st3" d="M716.97,691.04c-5.94,6.24-11.88,12.48-17.82,18.71c-9.33-0.01-18.65-0.03-27.98-0.04
		c-10.46-0.01-11.87-1.33-12.35-12.18c-8.1,7.17-17.39,11.21-27.47,13.49c-15.18,3.44-30.08,3.27-44.2-4.19
		c-16.47-8.7-23.89-25.24-20.75-45.79c3.73-24.4,22.41-42.01,47.58-44.4c13.91-1.32,27.87-2.08,41.8-3.1
		c0.98-0.07,1.95-0.28,2.9-0.42c0.43-11.02-6.6-18.14-18.2-18.72c-14.25-0.72-27.71,2.66-40.86,7.72c-1.71,0.66-3.39,1.38-5.12,1.95
		c-3.33,1.1-6.02,0.19-7.41-3.1c-3.6-8.57-7.13-17.18-10.51-25.84c-1.3-3.34-0.53-6.35,2.95-8c32.38-15.38,65.82-21.49,100.51-9.09
		c24.79,8.86,36.49,26.98,36.51,53.63c0.02,24.65-0.03,49.3-0.01,73.96C716.52,687.42,716.81,689.23,716.97,691.04z M658.95,641.68
		c-9.58-0.3-18.64,0.13-27.17,3.9c-6.03,2.66-9.53,8.49-9.24,14.69c0.28,6.06,3.87,10.84,10.14,12.74
		c6.08,1.85,12.16,1.58,17.87-1.5c4.68-2.52,7.79-6.56,8.28-11.75C659.37,653.87,658.95,647.89,658.95,641.68z"/>
	<path class="st3" d="M55.98,556.72c0,2.55,0,4.38,0,6.2c0,45.47-0.01,90.95-0.01,136.42c0,8.2-2.14,10.36-10.27,10.37
		c-13.16,0.02-26.32,0.02-39.48,0c-8.15-0.01-10.18-2.1-10.18-10.45c-0.01-45.31,0-90.62,0-135.92c0-1.98,0-3.96,0-6.64
		c-2.05,0-3.82,0-5.58,0c-14.49,0-28.98,0.04-43.48,0c-6.47-0.02-8.76-2.29-8.79-8.68c-0.05-10.83-0.06-21.65,0-32.48
		c0.04-6.12,2.73-8.8,8.88-8.8c52.64-0.03,105.27-0.03,157.91-0.01c6.13,0,8.81,2.73,8.84,8.83c0.05,10.83,0.05,21.65,0.01,32.48
		c-0.03,6.29-2.4,8.62-8.86,8.65c-14.49,0.05-28.98,0.02-43.48,0.03C59.86,556.72,58.22,556.72,55.98,556.72z"/>
	<path class="st3" d="M323.85,650.39c5.84,14.73,16.92,20.78,30.86,22.09c13.45,1.26,26.51-0.88,38.96-6.46
		c7.77-3.48,10.69-2.13,13.67,5.76c2,5.28,3.99,10.57,5.98,15.85c2.68,7.14,1.78,9.63-5,13.34c-11.87,6.49-24.76,9.57-38.06,11.08
		c-17.5,2-34.93,2.05-51.8-3.91c-30.52-10.78-47.13-32.95-51.28-64.57c-2.3-17.49-0.03-34.62,8.14-50.49
		c12.4-24.1,32.82-36.8,59.26-40.49c18.5-2.59,36.29-0.65,52.33,9.63c19.85,12.72,29.52,31.9,32.93,54.57
		c1.01,6.71,1.12,13.61,1.06,20.41c-0.08,8.56-3.06,11.63-11.44,12.84c-1.8,0.26-3.65,0.31-5.47,0.31
		c-24.83,0.02-49.65,0.02-74.48,0.03C327.86,650.39,326.21,650.39,323.85,650.39z M369.04,620.83c-0.58-10.39-1.54-20.53-11.18-26.4
		c-8-4.88-16.51-3.24-23.93,1.81c-8.5,5.78-11.27,14.51-11.09,24.6C338.48,620.83,353.54,620.83,369.04,620.83z"/>
	<path class="st3" d="M239.85,478.26c-5.92,8.53-12.91,16.53-17.48,25.73c-5.89,11.87-15.4,12.19-25.91,10.81
		c-2.34-0.31-4.89-2.73-6.42-4.84c-7.58-10.44-14.85-21.11-23.04-32.86c0,7.55,0,13.79,0,20.02c0,12.83,0.02,25.66,0,38.48
		c-0.01,6.04-1.33,7.44-7.2,7.48c-9,0.06-17.99,0.08-26.99-0.01c-5.42-0.05-6.77-1.48-6.77-6.89c-0.02-41.82-0.02-83.63,0-125.45
		c0-5.48,1.54-6.97,7.19-7.01c6.16-0.05,12.34,0.23,18.49-0.08c5.07-0.26,8.42,1.79,11.3,5.8c13.38,18.66,26.92,37.2,40.73,56.23
		c2.03-2.7,3.94-5.15,5.77-7.66c11.78-16.13,23.63-32.21,35.26-48.44c3-4.19,6.49-6.21,11.73-5.93c6.31,0.34,12.66,0.08,18.99,0.09
		c4.24,0,6.49,1.96,6.49,6.36c-0.02,42.32-0.02,84.63,0,126.95c0,3.94-2.02,5.94-5.78,5.98c-9.99,0.11-19.99,0.15-29.99,0.02
		c-4.22-0.06-5.46-2.73-5.43-6.72c0.13-17.66,0.06-35.32,0.06-52.98c0-1.58,0-3.16,0-4.75
		C240.52,478.47,240.18,478.36,239.85,478.26z"/>
	<path class="st3" d="M481.44,714.34c-13.15-1.8-26.11-2.56-38.28-7.82c-7.48-3.24-8.72-5.3-7.96-13.47
		c0.48-5.14,1.12-10.26,1.84-15.37c1.36-9.73,5.2-11.83,14.76-9.92c9.23,1.85,18.67,2.86,28.07,3.62c3.3,0.27,7-0.78,10.08-2.19
		c5.41-2.48,6.09-8.26,1.03-11.4c-6.44-4-13.38-7.35-20.42-10.2c-9.67-3.92-18.93-8.24-25.79-16.43
		c-22.45-26.79-11.28-65.47,22.03-75.52c22.19-6.69,44.47-4.63,66.52,1.08c5.94,1.54,8.56,5.44,8.12,11.56
		c-0.5,6.96-1.37,13.91-2.5,20.8c-0.93,5.69-4.95,7.38-11.98,6.17c-7.19-1.23-14.43-2.27-21.7-2.96c-2.89-0.27-6.21-0.05-8.74,1.17
		c-2.55,1.23-5.22,3.62-6.27,6.16c-1.39,3.37,0.67,6.61,3.92,8.27c7.24,3.7,14.54,7.3,21.95,10.63
		c12.78,5.73,23.65,13.45,29.95,26.51c12.54,25.97-1.77,57.81-29.72,64.43C504.98,712.17,493.1,712.78,481.44,714.34z"/>
	<path class="st3" d="M189.89,568.72c10.64-9.16,22.52-15.23,36.05-16.25c8.97-0.68,18.13,0.78,27.18,1.58
		c5.18,0.46,6.97,4.17,6.56,8.86c-1.21,13.92-2.43,27.85-4,41.74c-0.84,7.43-4.9,9.22-12.41,7.74c-9.38-1.85-18.99-4.09-28.43-3.78
		c-15.77,0.5-24.78,10.83-24.94,26.68c-0.21,20.98-0.05,41.97-0.08,62.95c0,1.65-0.03,3.34-0.35,4.95c-0.81,4.09-3.26,6.49-7.57,6.5
		c-13.99,0.03-27.98,0.11-41.97-0.04c-5.24-0.05-7.85-2.89-7.86-8.29c-0.05-45.63-0.06-91.27-0.01-136.9
		c0.01-6.11,2.78-8.72,8.95-8.74c12.66-0.05,25.31-0.02,37.97-0.02c8.34,0,10.01,1.62,10.53,10.12
		C189.56,566.62,189.71,567.41,189.89,568.72z"/>
	<path class="st3" d="M303.45,490.01c0-14.98-0.02-29.96,0.01-44.94c0.01-6.32,1.36-7.67,7.59-7.69c8.49-0.03,16.98,0.08,25.47-0.02
		c4.4-0.05,6.47,1.97,6.47,6.3c0,30.96-0.01,61.92,0.02,92.88c0,4.3-1.96,6.52-6.32,6.52c-8.82,0-17.64,0.1-26.46-0.01
		c-5.19-0.07-6.73-1.72-6.75-7.09C303.41,520.64,303.45,505.33,303.45,490.01z"/>
	<path class="st3" d="M323.59,395.4c4.49-0.01,8.99,0.02,13.48-0.01c3.95-0.03,5.85,2.03,5.89,5.82c0.07,6.32,0.07,12.65,0.02,18.98
		c-0.03,3.8-1.88,5.87-5.84,5.85c-9.32-0.03-18.64-0.02-27.96-0.02c-3.7,0-5.56-1.95-5.61-5.54c-0.09-6.49-0.15-12.98-0.03-19.47
		c0.07-3.8,2.14-5.71,6.07-5.62C314.27,395.48,318.93,395.41,323.59,395.4z"/>
	<path class="st0" d="M658.95,641.68c0,6.22,0.42,12.19-0.13,18.08c-0.49,5.19-3.6,9.22-8.28,11.75c-5.71,3.08-11.79,3.35-17.87,1.5
		c-6.27-1.91-9.86-6.68-10.14-12.74c-0.28-6.2,3.21-12.02,9.24-14.69C640.31,641.81,649.36,641.38,658.95,641.68z"/>
	<path class="st0" d="M369.04,620.83c-15.51,0-30.56,0-46.2,0c-0.17-10.09,2.6-18.82,11.09-24.6c7.41-5.04,15.92-6.68,23.93-1.81
		C367.5,600.31,368.46,610.44,369.04,620.83z"/>
</g>
</svg>
